<?xml version="1.0" encoding="utf-8"?>
<!-- Generator: Adobe Illustrator 16.0.3, SVG Export Plug-In . SVG Version: 6.00 Build 0)  -->
<!DOCTYPE svg PUBLIC "-//W3C//DTD SVG 1.1//EN" "http://www.w3.org/Graphics/SVG/1.1/DTD/svg11.dtd">
<svg version="1.1" xmlns="http://www.w3.org/2000/svg" xmlns:xlink="http://www.w3.org/1999/xlink" x="0px" y="0px" width="126.5px"
	 height="112.5px" viewBox="0 0 126.5 112.5" enable-background="new 0 0 126.5 112.5" xml:space="preserve">
<g id="Layer_1">
</g>
<g id="Layer_2">
</g>
<g id="Layer_3">
</g>
<g id="Layer_4">
</g>
<g id="Layer_5">
	<g>
		<path fill-rule="evenodd" clip-rule="evenodd" fill="#FFFFFF" d="M36.622,91.663c0-21.108,0-42.214,0-63.322
			c0.692-2.298,2.176-3.521,4.64-3.521c11.656,0.014,23.313,0.007,34.969,0c0.619,0,1.089,0.189,1.529,0.633
			c4.38,4.415,8.774,8.815,13.179,13.21c0.46,0.456,0.671,0.945,0.664,1.589c-0.021,1.911-0.01,3.824-0.007,5.733
			c0,0.231,0.025,0.463,0.046,0.846c0.98-1.167,1.834-2.193,2.7-3.209c1.803-2.123,3.554-4.295,5.438-6.345
			c1.385-1.508,3.807-1.631,5.529-0.52c1.182,0.766,1.771,1.888,2.099,3.198c0,0.461,0,0.921,0,1.381
			c-0.358,1.351-1.216,2.387-2.102,3.414c-1.125,1.308-2.222,2.637-3.319,3.944c1.336,2.021,1.255,3.354-0.267,5.16
			c-2.728,3.241-5.452,6.485-8.183,9.726c-0.682,0.809-0.872,0.854-1.94,0.496c0,0.316,0,0.611,0,0.907
			c0,8.499,0.004,16.999-0.003,25.496c-0.003,2.938-1.705,4.692-4.595,4.695c-15.266,0.011-30.536,0.011-45.806-0.021
			c-0.798,0-1.642-0.228-2.38-0.551C37.564,94.061,37.02,92.894,36.622,91.663z M80.498,60.087c-0.474,0-0.745,0-1.019,0
			c-7.72,0-15.438,0-23.154,0c-0.278,0-0.555,0-0.826-0.035c-0.583-0.078-0.928-0.408-0.932-1.01c0-0.59,0.327-0.941,0.914-1.016
			c0.274-0.035,0.552-0.039,0.829-0.039c8.409,0,16.817,0,25.225,0.004c0.422,0,0.777-0.021,1.093-0.407
			c2.145-2.591,4.327-5.149,6.468-7.744c0.225-0.271,0.375-0.689,0.383-1.044c0.032-2.489,0.018-4.978,0.014-7.462
			c0-0.227-0.027-0.443-0.045-0.719c-0.309,0-0.559,0-0.805,0c-3.044,0-6.084,0-9.125,0c-2.548-0.003-3.891-1.342-3.895-3.869
			c0-3.021,0-6.036,0-9.055c0-0.243,0-0.485,0-0.773c-0.33,0-0.559,0-0.787,0c-11.175,0-22.346,0-33.521,0.004
			c-1.828,0-2.608,0.779-2.612,2.601c0,20.32,0,40.642,0,60.959c0.003,1.821,0.784,2.603,2.612,2.603c15.186,0,30.368,0,45.549,0
			c1.874,0,2.629-0.761,2.629-2.645c0.004-8.641,0.004-17.279,0-25.918c0-0.242-0.017-0.479-0.038-0.913
			c-2.334,2.78-4.401,5.562-6.809,8.008c-2.416,2.461-5.167,4.588-7.878,6.953c0.341,0,0.566,0,0.788,0
			c2.19,0,4.376-0.004,6.566,0.003c0.253,0,0.506,0.015,0.756,0.057c0.555,0.103,0.858,0.481,0.84,1.02
			c-0.017,0.531-0.319,0.906-0.889,0.978c-0.252,0.027-0.506,0.035-0.759,0.035c-12.278,0-24.56,0-36.839,0
			c-0.252,0-0.51-0.008-0.759-0.042c-0.534-0.078-0.819-0.423-0.844-0.936c-0.028-0.549,0.232-0.936,0.794-1.044
			c0.292-0.06,0.594-0.067,0.89-0.067c7.537-0.007,15.07-0.003,22.603-0.003c0.271,0,0.542,0,0.809,0
			c-0.014-1.705,0.995-2.914,1.715-4.232c0.72-1.318,1.529-2.59,2.348-3.969c-3.111,0-6.081,0.004-9.052,0
			c-0.249,0-0.513,0.011-0.752-0.053c-0.502-0.13-0.787-0.481-0.777-1.005c0.011-0.527,0.31-0.861,0.816-0.981
			c0.218-0.049,0.457-0.034,0.685-0.034c3.249-0.004,6.497-0.004,9.748,0c0.355,0,0.611-0.031,0.854-0.395
			c0.71-1.072,1.459-2.122,2.264-3.121C77.806,63.239,79.103,61.75,80.498,60.087z M78.99,65.135
			c1.304,1.096,2.531,2.122,3.789,3.177c5.442-6.478,10.834-12.897,16.251-19.344c-1.297-1.089-2.524-2.115-3.786-3.177
			C89.803,52.265,84.418,58.673,78.99,65.135z M77.707,28.661c0,0.239,0,0.411,0,0.587c0,2.51-0.003,5.02,0,7.532
			c0.004,1.302,0.439,1.741,1.75,1.743c2.51,0.004,5.023,0.004,7.534-0.002c0.196,0,0.393-0.025,0.586-0.039
			c-0.049,0.024-0.099,0.053-0.148,0.077C84.214,35.283,80.994,32.012,77.707,28.661z M100.271,47.284
			c0.078-0.015,0.141-0.007,0.162-0.031c1.508-1.796,3.062-3.562,4.496-5.414c0.759-0.978,0.447-2.347-0.52-3.153
			c-0.915-0.758-2.275-0.758-3.157,0.054c-0.436,0.4-0.816,0.871-1.199,1.325c-1.153,1.364-2.295,2.73-3.462,4.127
			C97.86,45.256,99.073,46.279,100.271,47.284z M77.405,66.983c-0.288,0.397-0.556,0.713-0.767,1.062
			c-1.638,2.721-3.266,5.445-4.89,8.176c-0.267,0.454-0.523,0.925-0.71,1.417c-0.091,0.235-0.004,0.541,0.003,0.815
			c0.264-0.077,0.58-0.092,0.777-0.253c2.84-2.345,5.67-4.706,8.493-7.077c0.324-0.27,0.587-0.607,0.904-0.938
			C79.918,69.096,78.706,68.076,77.405,66.983z M91.659,62.586c1.326-1.578,2.539-3.023,3.748-4.468
			c1.659-1.973,3.314-3.947,4.97-5.923c0.443-0.528,0.615-1.083,0.19-1.804c-0.288,0.338-0.523,0.611-0.759,0.889
			c-2.559,3.049-5.1,6.114-7.695,9.129C91.553,61.053,91.553,61.693,91.659,62.586z"/>
		<path fill-rule="evenodd" clip-rule="evenodd" fill="#FFFFFF" d="M56.68,49.779c-3.821,0-7.646,0-11.466,0
			c-0.229,0-0.464,0.015-0.689-0.017c-0.548-0.084-0.872-0.419-0.9-0.97c-0.027-0.557,0.274-0.914,0.805-1.049
			c0.197-0.052,0.411-0.042,0.619-0.042c7.733-0.004,15.47-0.004,23.203,0c0.229,0,0.468-0.01,0.686,0.053
			c0.523,0.151,0.809,0.517,0.763,1.08c-0.042,0.526-0.358,0.833-0.868,0.921c-0.225,0.042-0.457,0.023-0.689,0.023
			C64.321,49.779,60.501,49.779,56.68,49.779z"/>
		<path fill-rule="evenodd" clip-rule="evenodd" fill="#FFFFFF" d="M51.885,68.295c2.327,0,4.65-0.011,6.974,0.003
			c0.977,0.004,1.578,0.851,1.047,1.521c-0.246,0.317-0.812,0.524-1.237,0.528c-4.324,0.039-8.65,0.021-12.978,0.021
			c-0.274,0-0.552,0.007-0.826,0c-0.808-0.018-1.269-0.414-1.251-1.065c0.014-0.621,0.46-1.005,1.23-1.008
			C47.192,68.287,49.54,68.295,51.885,68.295z"/>
		<path fill-rule="evenodd" clip-rule="evenodd" fill="#FFFFFF" d="M77.774,49.779c-1.543,0-3.083,0.004-4.626-0.002
			c-0.836,0-1.279-0.359-1.293-1.007c-0.015-0.678,0.446-1.068,1.311-1.068c3.086-0.007,6.168-0.007,9.255,0
			c0.809,0,1.297,0.394,1.315,1.016c0.018,0.654-0.481,1.06-1.336,1.062C80.86,49.783,79.317,49.779,77.774,49.779z"/>
		<path fill-rule="evenodd" clip-rule="evenodd" fill="#FFFFFF" d="M48.029,57.987c1.037,0,2.074-0.014,3.107,0.008
			c0.844,0.015,1.272,0.379,1.276,1.033c0.003,0.657-0.429,1.048-1.262,1.051c-2.096,0.019-4.19,0.019-6.285,0
			c-0.823-0.007-1.266-0.418-1.248-1.072c0.017-0.622,0.442-0.997,1.233-1.012C45.909,57.974,46.971,57.987,48.029,57.987z"/>
	</g>
</g>
<g id="Layer_6">
</g>
<g id="Layer_7">
</g>
<g id="Layer_8">
</g>
<g id="Layer_9">
</g>
<g id="Layer_10">
</g>
<g id="Layer_11">
</g>
</svg>
