<?xml version="1.0" encoding="utf-8"?>
<!-- Generator: Adobe Illustrator 16.0.3, SVG Export Plug-In . SVG Version: 6.00 Build 0)  -->
<!DOCTYPE svg PUBLIC "-//W3C//DTD SVG 1.1//EN" "http://www.w3.org/Graphics/SVG/1.1/DTD/svg11.dtd">
<svg version="1.1" xmlns="http://www.w3.org/2000/svg" xmlns:xlink="http://www.w3.org/1999/xlink" x="0px" y="0px" width="126.5px"
	 height="112.5px" viewBox="0 0 126.5 112.5" enable-background="new 0 0 126.5 112.5" xml:space="preserve">
<g id="Layer_1">
</g>
<g id="Layer_2">
</g>
<g id="Layer_3">
</g>
<g id="Layer_4">
</g>
<g id="Layer_5">
	<path fill="#FFFFFF" d="M98,34.535C98,37.554,95.554,40,92.536,40H32.464C29.446,40,27,37.554,27,34.535v-0.07
		C27,31.446,29.446,29,32.464,29h60.071C95.554,29,98,31.446,98,34.465V34.535z"/>
	<path fill="#FFFFFF" d="M98,56.535C98,59.554,95.554,62,92.536,62H32.464C29.446,62,27,59.554,27,56.535v-0.07
		C27,53.446,29.446,51,32.464,51h60.071C95.554,51,98,53.446,98,56.465V56.535z"/>
	<path fill="#FFFFFF" d="M98,78.535C98,81.554,95.554,84,92.536,84H32.464C29.446,84,27,81.554,27,78.535v-0.07
		C27,75.446,29.446,73,32.464,73h60.071C95.554,73,98,75.446,98,78.465V78.535z"/>
</g>
<g id="Layer_6">
</g>
<g id="Layer_7">
</g>
<g id="Layer_8">
</g>
<g id="Layer_9">
</g>
<g id="Layer_10">
</g>
<g id="Layer_11">
</g>
</svg>
