<?xml version="1.0" encoding="utf-8"?>
<!-- Generator: Adobe Illustrator 16.0.3, SVG Export Plug-In . SVG Version: 6.00 Build 0)  -->
<!DOCTYPE svg PUBLIC "-//W3C//DTD SVG 1.1//EN" "http://www.w3.org/Graphics/SVG/1.1/DTD/svg11.dtd">
<svg version="1.1" xmlns="http://www.w3.org/2000/svg" xmlns:xlink="http://www.w3.org/1999/xlink" x="0px" y="0px" width="126.5px"
	 height="112.5px" viewBox="0 0 126.5 112.5" enable-background="new 0 0 126.5 112.5" xml:space="preserve">
<g id="Layer_1">
</g>
<g id="Layer_2">
</g>
<g id="Layer_3">
</g>
<g id="Layer_4">
</g>
<g id="Layer_5">
	<g>
		<path fill-rule="evenodd" clip-rule="evenodd" fill="#FFFFFF" d="M73.351,25.976c0.938,0.408,1.965,0.676,2.795,1.241
			c1.599,1.087,2.376,2.718,2.453,4.65c0.039,1.006,0.007,2.018,0.007,3.041c0.893,0.358,1.786,0.65,2.619,1.064
			c7.797,3.896,11.906,10.194,12.208,18.915c0.106,3.007-0.035,6.029,0.151,9.03c0.369,5.998,2.443,11.418,5.979,16.27
			c0.792,1.09,1.691,2.102,2.581,3.11c0.65,0.738,0.98,1.516,0.542,2.457c-0.422,0.9-1.199,1.188-2.159,1.188
			c-5.75-0.015-11.505-0.011-17.26-0.011c-0.246,0-0.492,0-0.791,0c-0.102,0.355-0.187,0.696-0.303,1.026
			c-1.395,3.916-4.123,6.261-8.243,6.956c-0.105,0.019-0.208,0.071-0.309,0.109c-0.724,0-1.441,0-2.162,0
			c-1.086-0.327-2.239-0.527-3.251-1.009c-2.763-1.308-4.574-3.483-5.41-6.443c-0.049-0.173-0.099-0.348-0.151-0.518
			c-0.007-0.02-0.025-0.034-0.095-0.122c-0.207,0-0.471,0-0.738,0c-5.796,0-11.597,0.004-17.393-0.004
			c-1.722,0-2.749-1.571-1.965-2.981c0.134-0.231,0.31-0.441,0.492-0.642c4.166-4.454,6.922-9.656,8.046-15.661
			c0.397-2.127,0.521-4.315,0.623-6.489c0.127-2.755-0.109-5.546,0.179-8.281c0.77-7.367,4.573-12.813,11.038-16.384
			c1.132-0.629,2.37-1.064,3.638-1.628c0-0.776,0-1.648,0-2.524c0.007-3.251,1.839-5.532,5.017-6.257
			c0.081-0.021,0.162-0.065,0.243-0.105C72.271,25.976,72.81,25.976,73.351,25.976z M96.47,82.873
			c-0.218-0.317-0.365-0.534-0.517-0.753c-3.807-5.441-6.021-11.467-6.426-18.1c-0.168-2.823-0.07-5.663-0.141-8.489
			c-0.028-1.184-0.088-2.383-0.274-3.557C87.714,43.173,78.789,36.799,70.015,38.3c-8.514,1.452-14.324,8.339-14.332,16.979
			c-0.003,2.046,0.011,4.092-0.003,6.134c-0.049,7.66-2.246,14.63-6.678,20.889c-0.12,0.164-0.225,0.34-0.38,0.572
			C64.616,82.873,80.48,82.873,96.47,82.873z M78.185,86.933c-1.919,0-3.783,0-5.646,0c-1.874,0-3.75,0-5.646,0
			c0.629,2.316,3.122,4.056,5.685,4.047C75.112,90.969,77.569,89.225,78.185,86.933z M70.542,34.11c1.361,0,2.671,0,4.014,0
			c0-0.77,0.039-1.512-0.01-2.239c-0.071-1.03-0.953-1.827-1.968-1.846c-0.985-0.021-1.913,0.71-2.021,1.702
			C70.476,32.521,70.542,33.326,70.542,34.11z"/>
		<path fill-rule="evenodd" clip-rule="evenodd" fill="#FFFFFF" d="M42.2,53.999c0.309-7.786,3.206-14.651,8.777-20.366
			c0.858-0.883,2.137-0.928,2.949-0.131c0.815,0.799,0.819,2.057-0.063,2.952c-2.924,2.989-5.065,6.448-6.352,10.424
			c-0.844,2.604-1.251,5.279-1.266,8.014c-0.01,0.894-0.415,1.561-1.227,1.927c-0.742,0.33-1.508,0.256-2.063-0.32
			c-0.358-0.376-0.549-0.938-0.738-1.444C42.122,54.793,42.2,54.474,42.2,53.999z"/>
		<path fill-rule="evenodd" clip-rule="evenodd" fill="#FFFFFF" d="M102.847,54.221c0,0.383,0.057,0.772-0.014,1.143
			c-0.193,1.025-1.156,1.722-2.158,1.623c-1.051-0.105-1.817-0.944-1.831-2.066c-0.028-2.414-0.334-4.791-0.991-7.114
			c-1.209-4.247-3.365-7.952-6.419-11.14c-0.348-0.363-0.664-0.819-0.804-1.286c-0.267-0.897,0.189-1.79,0.995-2.212
			c0.808-0.429,1.768-0.267,2.464,0.439c2.063,2.096,3.807,4.422,5.199,7.01C101.567,44.867,102.734,49.408,102.847,54.221z"/>
	</g>
	<path fill-rule="evenodd" clip-rule="evenodd" fill="#FF1D25" d="M23.535,39.459c0-11.513,9.328-20.841,20.84-20.841
		s20.84,9.328,20.84,20.841s-9.328,20.84-20.84,20.84S23.535,50.972,23.535,39.459z"/>
	<text transform="matrix(1 0 0 1 35.373 51.6934)" fill="#FFFFFF" font-family="'Roboto-Regular'" font-size="31.9778">1</text>
</g>
<g id="Layer_6">
</g>
<g id="Layer_7">
</g>
<g id="Layer_8">
</g>
<g id="Layer_9">
</g>
<g id="Layer_10">
</g>
<g id="Layer_11">
</g>
</svg>
