<?xml version="1.0" encoding="utf-8"?>
<!-- Generator: Adobe Illustrator 16.0.3, SVG Export Plug-In . SVG Version: 6.00 Build 0)  -->
<!DOCTYPE svg PUBLIC "-//W3C//DTD SVG 1.1//EN" "http://www.w3.org/Graphics/SVG/1.1/DTD/svg11.dtd">
<svg version="1.1" xmlns="http://www.w3.org/2000/svg" xmlns:xlink="http://www.w3.org/1999/xlink" x="0px" y="0px" width="126.5px"
	 height="112.5px" viewBox="0 0 126.5 112.5" enable-background="new 0 0 126.5 112.5" xml:space="preserve">
<g id="Layer_1">
</g>
<g id="Layer_2">
</g>
<g id="Layer_3">
</g>
<g id="Layer_4">
</g>
<g id="Layer_5">
	<g>
		<path fill-rule="evenodd" clip-rule="evenodd" fill="#FFFFFF" d="M58.56,24.682c3.035,0,6.07,0,9.105,0
			c1.001,0.356,1.501,1.088,1.735,2.11c0.539,2.371,1.148,4.727,1.702,7.095c0.104,0.445,0.279,0.701,0.734,0.865
			c1.056,0.382,2.094,0.816,3.116,1.282c0.38,0.173,0.651,0.165,1.004-0.052c2.038-1.245,4.089-2.468,6.138-3.694
			c1.39-0.833,2.176-0.739,3.31,0.392c1.724,1.721,3.447,3.443,5.168,5.168c1.131,1.133,1.224,1.92,0.391,3.31
			c-1.227,2.049-2.449,4.101-3.694,6.138c-0.216,0.354-0.225,0.624-0.051,1.004c0.465,1.021,0.9,2.06,1.282,3.115
			c0.164,0.455,0.419,0.631,0.865,0.735c2.368,0.554,4.724,1.163,7.095,1.702c1.022,0.232,1.754,0.733,2.11,1.734
			c0,3.035,0,6.07,0,9.105c-0.356,1.001-1.088,1.502-2.11,1.734c-2.372,0.54-4.728,1.149-7.095,1.705
			c-0.443,0.104-0.701,0.279-0.865,0.736c-0.381,1.055-0.816,2.094-1.283,3.114c-0.175,0.383-0.159,0.653,0.055,1.004
			c1.256,2.059,2.491,4.13,3.728,6.199c0.786,1.315,0.689,2.125-0.382,3.199c-1.72,1.726-3.444,3.447-5.167,5.17
			c-1.18,1.179-1.948,1.278-3.36,0.432c-2.029-1.215-4.063-2.423-6.078-3.662c-0.401-0.246-0.713-0.239-1.128-0.05
			c-0.98,0.447-1.977,0.862-2.986,1.237c-0.452,0.167-0.692,0.385-0.808,0.882c-0.527,2.256-1.129,4.496-1.659,6.752
			c-0.242,1.033-0.722,1.816-1.763,2.174c-3.035,0-6.07,0-9.105,0c-1.041-0.357-1.521-1.142-1.764-2.175
			c-0.53-2.256-1.125-4.497-1.663-6.752c-0.107-0.451-0.29-0.699-0.74-0.863c-1.055-0.385-2.094-0.818-3.116-1.283
			c-0.378-0.172-0.649-0.172-1.005,0.046c-2.038,1.247-4.09,2.469-6.139,3.697c-1.393,0.834-2.178,0.741-3.311-0.391
			c-1.725-1.721-3.448-3.444-5.17-5.17c-1.131-1.133-1.224-1.918-0.39-3.311c1.228-2.049,2.45-4.102,3.697-6.139
			c0.218-0.355,0.218-0.627,0.047-1.005c-0.464-1.022-0.898-2.062-1.283-3.116c-0.164-0.45-0.413-0.633-0.864-0.74
			c-2.255-0.537-4.496-1.133-6.752-1.662c-1.033-0.244-1.816-0.723-2.175-1.764c0-3.035,0-6.07,0-9.105
			c0.358-1.041,1.142-1.521,2.175-1.764c2.256-0.53,4.495-1.131,6.752-1.658c0.497-0.116,0.714-0.357,0.882-0.809
			c0.374-1.011,0.79-2.007,1.237-2.986c0.189-0.415,0.195-0.728-0.051-1.128c-1.25-2.035-2.47-4.089-3.695-6.14
			c-0.8-1.339-0.696-2.133,0.418-3.25c1.721-1.725,3.444-3.447,5.169-5.169c1.135-1.133,1.923-1.228,3.31-0.396
			c2.049,1.228,4.1,2.45,6.139,3.695c0.352,0.216,0.623,0.229,1.004,0.054c1.021-0.467,2.06-0.9,3.115-1.283
			c0.455-0.164,0.632-0.417,0.737-0.863c0.553-2.369,1.163-4.725,1.703-7.096C57.058,25.77,57.558,25.038,58.56,24.682z
			 M39.435,80.213c1.23,1.23,2.396,2.396,3.603,3.604c2.012-1.207,4.095-2.417,6.136-3.695c1.006-0.631,1.906-0.623,2.971-0.102
			c1.498,0.734,3.051,1.379,4.63,1.915c1.147,0.39,1.805,1.029,2.073,2.217c0.495,2.193,1.089,4.364,1.618,6.551
			c0.086,0.356,0.218,0.491,0.592,0.485c1.356-0.02,2.713-0.021,4.069,0.001c0.399,0.007,0.546-0.127,0.639-0.516
			c0.521-2.165,1.117-4.312,1.603-6.483c0.271-1.214,0.921-1.889,2.11-2.262c1.395-0.438,2.809-0.926,4.071-1.643
			c1.44-0.817,2.634-0.822,4.008,0.121c1.625,1.116,3.372,2.057,5.066,3.071c0.213,0.128,0.431,0.248,0.513,0.295
			c1.236-1.236,2.415-2.415,3.619-3.62c-1.209-2.014-2.443-4.111-3.722-6.182c-0.581-0.94-0.548-1.795-0.075-2.788
			c0.737-1.548,1.406-3.139,1.963-4.76c0.388-1.128,1.038-1.755,2.19-2.013c2.261-0.507,4.503-1.101,6.763-1.615
			c0.47-0.107,0.571-0.307,0.563-0.741c-0.024-1.264-0.027-2.528,0.001-3.792c0.011-0.463-0.09-0.674-0.594-0.787
			c-2.283-0.516-4.549-1.104-6.83-1.633c-1.063-0.246-1.682-0.842-2.055-1.887c-0.599-1.681-1.293-3.332-2.046-4.949
			c-0.443-0.952-0.453-1.782,0.1-2.665c0.72-1.147,1.402-2.319,2.099-3.481c0.576-0.96,1.149-1.922,1.674-2.798
			c-1.229-1.228-2.396-2.395-3.597-3.595c-0.141,0.082-0.339,0.194-0.533,0.312c-1.931,1.157-3.868,2.304-5.787,3.479
			c-0.868,0.532-1.678,0.516-2.604,0.089c-1.642-0.755-3.314-1.457-5.012-2.074c-0.988-0.358-1.596-0.932-1.818-1.948
			c-0.186-0.852-0.4-1.697-0.607-2.544c-0.4-1.646-0.803-3.293-1.2-4.917c-1.714,0-3.36,0-5.042,0
			c-0.594,2.46-1.203,4.884-1.757,7.321c-0.256,1.124-0.885,1.752-1.982,2.134c-1.641,0.571-3.252,1.249-4.822,1.993
			c-0.973,0.462-1.813,0.482-2.725-0.082c-1.699-1.052-3.421-2.065-5.134-3.094c-0.406-0.244-0.816-0.482-1.111-0.657
			c-1.241,1.241-2.408,2.406-3.61,3.608c1.226,2.041,2.476,4.155,3.761,6.247c0.563,0.915,0.536,1.754,0.075,2.726
			c-0.744,1.571-1.417,3.184-1.99,4.824c-0.382,1.097-1.019,1.718-2.14,1.979c-2.19,0.51-4.363,1.096-6.551,1.615
			c-0.426,0.102-0.548,0.272-0.539,0.692c0.025,1.286,0.03,2.575-0.002,3.862c-0.012,0.471,0.107,0.672,0.599,0.786
			c2.168,0.507,4.315,1.099,6.485,1.596c1.158,0.265,1.785,0.923,2.167,2.039c0.542,1.578,1.176,3.135,1.908,4.634
			c0.518,1.059,0.557,1.957-0.077,2.97C41.862,76.098,40.651,78.182,39.435,80.213z"/>
		<path fill-rule="evenodd" clip-rule="evenodd" fill="#FFFFFF" d="M77.596,60.127c0.011,7.959-6.505,14.485-14.472,14.496
			c-7.959,0.01-14.486-6.507-14.496-14.473c-0.01-7.959,6.506-14.485,14.472-14.496C71.06,45.645,77.585,52.16,77.596,60.127z
			 M73.457,60.145c0.004-5.693-4.663-10.358-10.356-10.352c-5.667,0.008-10.31,4.637-10.334,10.305
			c-0.024,5.691,4.626,10.371,10.322,10.386C68.781,70.498,73.453,65.838,73.457,60.145z"/>
	</g>
</g>
<g id="Layer_6">
</g>
<g id="Layer_7">
</g>
<g id="Layer_8">
</g>
<g id="Layer_9">
</g>
<g id="Layer_10">
</g>
<g id="Layer_11">
</g>
</svg>
